<svg xmlns="http://www.w3.org/2000/svg" viewBox="0 0 537.95 120.92"><defs><style>.cls-1{fill:#910606;}</style></defs><g id="Layer_2" data-name="Layer 2"><g id="Layer_1-2" data-name="Layer 1"><rect x="132.05" y="27.49" width="9.69" height="64.91"/><rect x="153.06" y="28.52" width="9.69" height="11.15"/><rect x="153.06" y="46.01" width="9.69" height="46.39"/><path d="M196.18,84.34a9.54,9.54,0,0,1-4.45-.9,5.39,5.39,0,0,1-2.49-2.57,9.65,9.65,0,0,1-.77-4.08v-22H199V46H188.47V35.38h-9.69V39a7.17,7.17,0,0,1-1.8,5.15A6.69,6.69,0,0,1,171.92,46h-1.29v8.75h8.15V77.22q0,7.45,4,11.58t11.32,4.11a21.07,21.07,0,0,0,2.57-.17c1-.11,1.86-.23,2.66-.34V84.08l-1.63.17A15,15,0,0,1,196.18,84.34Z"/><path d="M245.23,51.71a20.14,20.14,0,0,0-6.95-4.93,23.09,23.09,0,0,0-9.34-1.8,22,22,0,0,0-11.66,3.13,23.06,23.06,0,0,0-8.19,8.53A24.9,24.9,0,0,0,206,69.08a25.47,25.47,0,0,0,3,12.39,22.51,22.51,0,0,0,8.36,8.74,23.37,23.37,0,0,0,12.3,3.22,24.53,24.53,0,0,0,8.7-1.5,20.92,20.92,0,0,0,6.86-4.12,16.67,16.67,0,0,0,4.25-5.87l-7.89-3.86A14,14,0,0,1,237,83a13.07,13.07,0,0,1-7.15,1.88,13.72,13.72,0,0,1-7.34-2,13.16,13.16,0,0,1-5-5.49,13.71,13.71,0,0,1-1.37-5.4h34.51a12.42,12.42,0,0,0,.34-2.23q.09-1.2.09-2.31a24.42,24.42,0,0,0-1.5-8.58A22.07,22.07,0,0,0,245.23,51.71Zm-27.78,8.84a12.18,12.18,0,0,1,11.49-7.42,11.56,11.56,0,0,1,11,7.16,11.15,11.15,0,0,1,.86,4H216.35A14.27,14.27,0,0,1,217.45,60.55Z"/><path d="M273.87,47.43a10.64,10.64,0,0,0-4.12,4.51V46h-9.26V92.4h9.69V65.65c0-3.66,1-6.48,3-8.45a10.49,10.49,0,0,1,7.76-3h4V45.41H282.1A15.86,15.86,0,0,0,273.87,47.43Z"/><path d="M320.81,47A22.08,22.08,0,0,0,311.08,45a23.5,23.5,0,0,0-8.28,1.46A21.17,21.17,0,0,0,296,50.51a15.27,15.27,0,0,0-4.21,6.05l8.06,4a12.07,12.07,0,0,1,4.25-5.19,11.43,11.43,0,0,1,6.73-2,9.92,9.92,0,0,1,6.73,2.18,7.08,7.08,0,0,1,2.53,5.62V63l-14.75,2.43a25.46,25.46,0,0,0-8.83,2.91,13,13,0,0,0-6.86,11.84,12.32,12.32,0,0,0,2,7,13.27,13.27,0,0,0,5.53,4.64,19.36,19.36,0,0,0,8.28,1.67,21.86,21.86,0,0,0,7.16-1.12,18.66,18.66,0,0,0,5.74-3.17A17.59,17.59,0,0,0,320.51,87V92.4h9.26V61.19a15.24,15.24,0,0,0-2.36-8.45A15.89,15.89,0,0,0,320.81,47Zm-2.36,32.45a12.11,12.11,0,0,1-4.59,4.59A13.44,13.44,0,0,1,307,85.8a7.86,7.86,0,0,1-5.19-1.68,5.35,5.35,0,0,1-2-4.33,6,6,0,0,1,1.8-4.5,10.68,10.68,0,0,1,5.66-2.44l12.86-2.25v2.51A12.65,12.65,0,0,1,318.45,79.49Z"/><path d="M377.61,51.42a17.49,17.49,0,0,0-5.31-4.21A21.16,21.16,0,0,0,362.44,45a22.33,22.33,0,0,0-11.84,3.18,23.2,23.2,0,0,0-8.31,8.66,24.68,24.68,0,0,0-3.09,12.34,25,25,0,0,0,3,12.35,23.1,23.1,0,0,0,8.32,8.7,22.44,22.44,0,0,0,12,3.22,21.69,21.69,0,0,0,9.78-2.23A16,16,0,0,0,378,86.45v6h9.17V27.49h-9.6ZM375.77,77a13.91,13.91,0,0,1-5.06,5.44,13.53,13.53,0,0,1-7.25,2A13.46,13.46,0,0,1,351.12,77a16.81,16.81,0,0,1-1.8-7.85,16.55,16.55,0,0,1,1.8-7.8,13.44,13.44,0,0,1,5.06-5.4,13.73,13.73,0,0,1,7.28-2,13.53,13.53,0,0,1,7.25,2,13.93,13.93,0,0,1,5.06,5.4,16.22,16.22,0,0,1,1.84,7.8A16.48,16.48,0,0,1,375.77,77Z"/><path d="M435.83,51.71a20.19,20.19,0,0,0-6.94-4.93,23.14,23.14,0,0,0-9.35-1.8,22.05,22.05,0,0,0-11.66,3.13,23.06,23.06,0,0,0-8.19,8.53,24.9,24.9,0,0,0-3,12.44,25.58,25.58,0,0,0,3,12.39A22.51,22.51,0,0,0,408,90.21a23.37,23.37,0,0,0,12.3,3.22,24.49,24.49,0,0,0,8.7-1.5,20.92,20.92,0,0,0,6.86-4.12,16.67,16.67,0,0,0,4.25-5.87l-7.89-3.86A14,14,0,0,1,427.56,83a13.13,13.13,0,0,1-7.16,1.88,13.66,13.66,0,0,1-7.33-2,13.12,13.12,0,0,1-5-5.49,13.71,13.71,0,0,1-1.37-5.4h34.51a12.42,12.42,0,0,0,.34-2.23q.09-1.2.09-2.31a24.42,24.42,0,0,0-1.5-8.58A22.07,22.07,0,0,0,435.83,51.71Zm-27.78,8.84a12.18,12.18,0,0,1,11.49-7.42,11.56,11.56,0,0,1,11,7.16,10.94,10.94,0,0,1,.86,4H407A14.27,14.27,0,0,1,408.05,60.55Z"/><polygon points="492.33 46.01 480.24 46.01 460.78 66.12 460.78 27.49 451.09 27.49 451.09 92.4 460.78 92.4 460.78 78.31 467.74 70.92 481.96 92.4 493.1 92.4 474.84 64.62 492.33 46.01"/><path d="M535.59,52.74A15.89,15.89,0,0,0,529,47,22.1,22.1,0,0,0,519.25,45,23.48,23.48,0,0,0,511,46.44a21.33,21.33,0,0,0-6.82,4.07,15.35,15.35,0,0,0-4.2,6.05l8.06,4a12.07,12.07,0,0,1,4.25-5.19,11.43,11.43,0,0,1,6.73-2,9.92,9.92,0,0,1,6.73,2.18,7.11,7.11,0,0,1,2.53,5.62V63l-14.75,2.43a25.39,25.39,0,0,0-8.83,2.91,13,13,0,0,0-6.86,11.84,12.32,12.32,0,0,0,2,7,13.27,13.27,0,0,0,5.53,4.64,19.33,19.33,0,0,0,8.28,1.67,21.8,21.8,0,0,0,7.15-1.12,18.71,18.71,0,0,0,5.75-3.17A18.31,18.31,0,0,0,528.69,87V92.4H538V61.19A15.24,15.24,0,0,0,535.59,52.74Zm-9,26.75A12.19,12.19,0,0,1,522,84.08a13.44,13.44,0,0,1-6.9,1.72A7.82,7.82,0,0,1,510,84.12a5.35,5.35,0,0,1-2-4.33,6,6,0,0,1,1.8-4.5,10.65,10.65,0,0,1,5.66-2.44l12.86-2.25v2.51A12.75,12.75,0,0,1,526.63,79.49Z"/><path class="cls-1" d="M83.83,0H60.64V32.59H77.42a17.67,17.67,0,0,1-3.92,10.2Q70,47.11,60.64,51.47L68.3,65.82q15-6.52,21.22-15.2T95.73,27V11.9A11.9,11.9,0,0,0,83.83,0Z"/><path class="cls-1" d="M40.43,80.49V0H0V80.67H0a40.43,40.43,0,0,0,40.43,40.25h0V80.49Z"/><path class="cls-1" d="M40.43,120.92h55.3V80.49H80.85A40.42,40.42,0,0,0,40.43,120.92Z"/></g></g></svg>